<svg xmlns="http://www.w3.org/2000/svg" width="10" height="17" fill="none"><path fill="#FBFBFB" d="M2.5 5.313c0-1.173.897-2.125 2-2.125h1c1.103 0 2 .952 2 2.124v.12c0 .724-.347 1.398-.919 1.786l-1.319.9a2.86 2.86 0 0 0-.926 1.058c-.22.429-.336.91-.336 1.4v.049c0 .588.447 1.063 1 1.063.553 0 1-.475 1-1.063v-.046c0-.273.131-.525.344-.671l1.318-.9C8.806 8.224 9.5 6.88 9.5 5.432v-.12c0-2.347-1.79-4.25-4-4.25h-1c-2.21 0-4 1.903-4 4.25 0 .588.447 1.063 1 1.063.553 0 1-.475 1-1.063ZM5 15.938c.332 0 .65-.14.884-.39.234-.249.366-.586.366-.939 0-.352-.132-.69-.366-.939A1.214 1.214 0 0 0 5 13.281c-.332 0-.65.14-.884.39a1.371 1.371 0 0 0-.366.938c0 .353.132.69.366.94.235.249.552.389.884.389Z"/></svg>