<svg xmlns="http://www.w3.org/2000/svg" width="25" height="25" fill="none"><g clip-path="url(#a)"><path fill="#FBFBFB" d="m14.877 17.6-.428 1.597-11.176-2.994.428-1.597s.855-3.193 6.444-1.696c5.588 1.497 4.732 4.69 4.732 4.69Zm-.762-8.332A2.893 2.893 0 1 0 8.527 7.77a2.893 2.893 0 0 0 5.588 1.498Zm1.57 5.127a4.397 4.397 0 0 1 .789 3.634l-.428 1.596 3.193.856.428-1.597s.776-2.898-3.982-4.49Zm1.175-7.386a2.802 2.802 0 0 0-1.667.058 4.133 4.133 0 0 1-1.245 4.646c.37.431.864.74 1.414.884a2.892 2.892 0 1 0 1.498-5.588Z"/></g><defs><clipPath id="a"><path fill="#fff" d="M5.74.607 24.9 5.74 19.768 24.9.607 19.767z"/></clipPath></defs></svg>